<?xml version="1.0" encoding="utf-8"?>
<!-- Generator: Adobe Illustrator 16.0.0, SVG Export Plug-In . SVG Version: 6.00 Build 0)  -->
<!DOCTYPE svg PUBLIC "-//W3C//DTD SVG 1.1//EN" "http://www.w3.org/Graphics/SVG/1.1/DTD/svg11.dtd">
<svg version="1.1" id="Layer_1" xmlns="http://www.w3.org/2000/svg" xmlns:xlink="http://www.w3.org/1999/xlink" x="0px" y="0px"
	 width="1000px" height="489.474px" viewBox="0 0 1000 489.474" enable-background="new 0 0 1000 489.474" xml:space="preserve">
<g>
	<path d="M687.092,416.755c0-17.742,9.953-27.336,23.256-27.336c12.313,0,18.174,6.798,20.543,16.458l-8.52,2.429
		c-2.006-7.003-5.077-10.589-12.092-10.589c-8.953,0-14.169,6.943-14.169,18.973c0,12.599,5.364,19.529,14.313,19.529
		c6.87,0,10.733-3.433,12.74-11.379l8.513,1.938c-2.579,10.523-9.095,17.604-21.329,17.604
		C696.752,444.382,687.092,435.007,687.092,416.755"/>
	<path d="M764.751,424.413c0-7.078-3.001-12.234-9.667-12.234c-6.361,0-9.651,4.577-9.651,12.234c0,7.227,2.935,12.382,9.651,12.382
		C761.461,436.794,764.751,432.211,764.751,424.413 M736.553,424.413c0-14.023,9.241-19.752,18.531-19.752
		c9.238,0,18.547,5.729,18.547,19.752c0,13.892-9.309,19.753-18.547,19.753C745.86,444.166,736.553,438.304,736.553,424.413"/>
	<path d="M779.826,443.378v-37.995h8.796v5.217c2.944-3.222,7.235-5.939,13.036-5.939c6.367,0,8.867,2.504,10.371,6.226
		c3.008-3.291,7.521-6.226,13.311-6.226c7.726,0,11.098,4.655,11.098,11.453v27.265h-8.805v-25.053c0-4.219-1.218-6.147-5.367-6.147
		c-3.586,0-6.439,2.004-9.732,4.939v26.261h-8.803v-25.053c0-4.219-1.22-6.147-5.366-6.147c-3.511,0-6.442,2.004-9.742,4.939v26.261
		H779.826"/>
	<path d="M871.678,424.413c0-8.016-3.435-12.234-9.091-12.234c-3.651,0-7.157,2.29-9.233,4.788v15.245
		c2.363,3.076,5.795,4.725,8.938,4.725C868.954,436.936,871.678,432.859,871.678,424.413 M844.549,457.692v-52.309h8.805v5.006
		c2.508-3.011,6.443-5.731,12.096-5.731c8.658,0,15.027,6.521,15.027,19.686c0,13.175-6.518,19.611-16.247,19.611
		c-4.071,0-8.085-1.651-10.876-4.795v18.532H844.549"/>
	<path d="M909.134,432.784v-8.374c-10.522,1.432-16.103,4.011-16.103,8.163c0,3.002,2.072,4.574,5.3,4.574
		C902.833,437.147,906.35,435.436,909.134,432.784 M884.373,434.221c0-8.229,7.012-13.747,24.761-15.754v-1.133
		c0-3.803-2.001-5.445-6.229-5.445c-5.292,0-9.589,2.579-12.804,5.146l-4.297-5.511c4.08-3.722,10.45-6.867,18.318-6.867
		c10.164,0,13.674,4.875,13.674,13.74v15.676c0,4.577,0.287,7.37,1.07,9.302h-8.871c-0.504-1.569-0.862-2.718-0.862-4.863
		c-3.86,3.938-8.377,5.439-14.03,5.439C888.959,443.952,884.373,440.513,884.373,434.221"/>
	<path d="M925.734,443.378v-37.995h8.805v6.075c2.865-3.291,7.299-6.798,13.6-6.798c6.936,0,11.232,3.576,11.232,11.092v27.626
		h-8.799v-25.116c0-4.155-1.717-6.298-5.728-6.298c-3.866,0-7.091,1.929-10.306,4.939v26.475H925.734"/>
	<path d="M961.502,456.975l1.998-7.082c1.078,0.283,3.365,0.79,6.445,0.79c3.152,0,4.795-1.227,6.015-4.303l1.069-2.788
		l-14.6-38.209h9.158l9.811,27.687h0.139l9.733-27.687H1000l-16.172,42.145c-2.504,6.653-5.792,10.595-13.311,10.595
		C966.01,458.123,963.361,457.478,961.502,456.975"/>
	<polyline points="16.314,443.292 16.314,398.637 0,398.637 0,390.333 41.58,390.333 41.58,398.637 25.259,398.637 25.259,443.292 
		16.314,443.292 	"/>
	<path d="M46.865,443.292v-52.959h8.877v20.107c2.429-2.57,7.01-5.864,13.885-5.864c6.652,0,10.947,3.941,10.947,11.445v27.271
		h-8.877v-25.05c0-4.213-1.787-6.15-5.653-6.15c-3.86,0-7.084,2.001-10.302,4.936v26.265H46.865"/>
	<path d="M113.262,420.607c-0.506-5.801-3.364-8.877-8.662-8.877c-4.296,0-8.229,2.432-9.09,8.877H113.262 M86.563,424.329
		c0-14.458,10.236-19.753,18.11-19.753c8.517,0,16.671,5.078,16.671,20.533v2.082H95.367c0.358,6.867,4.58,9.875,10.167,9.875
		c4.937,0,7.801-1.646,10.658-4.438l4.657,4.577c-3.941,4.375-9.165,6.879-15.966,6.879
		C95.367,444.083,86.563,438.29,86.563,424.329"/>
	<path d="M635.449,449.541c0,0-0.938,2.752-1.627,4.912c-1.188,3.728-3.8,13.765-4.405,16.887
		c-0.91,4.628-3.501,16.757-3.634,17.016c-0.184,0.353-0.305,0.465-0.742,0.745c-1.066,0.626-1.497,0.418-2.79-0.271
		c-1.679-0.883-3.151-1.784-4.411-3.447c-2.531-3.287-1.926-9.471-1.432-13.099c1.736-12.692,3.492-18.273,8.322-30.905
		c0.079-0.217,0.079-0.265-0.021-0.458c-1.503-3.206-2.317-7.078-2.317-10.206c0.012-9.901,5.705-19.701,12.084-27.568
		c0.482-0.597,3.613-4.352,5.037-4.276c1.426,0.066,1.654,1.729,1.443,3.119c-0.717,4.574-3.935,9.232-6.135,13.09
		c-2.474,4.312-3.01,6.084-4.221,10.037c-0.193,0.618-0.679,3.505-0.657,3.875c0.048,1.062,0.28,2.402,0.28,2.402
		s4.025-5.636,6.68-9.113c1.453-1.91,2.496-3.173,3.704-4.531c1.226-1.384,5.942-6.286,7.302-7.579
		c2.854-2.724,4.119-3.856,7.204-5.46c2.446-1.263,4.644-1.579,7.03-0.003c3.781,2.486,5.43,7.741,5.855,12.002
		c0.496,5.09-0.543,10.818-2.791,15.179c-2.66,5.2-6.301,8.946-11.246,12.225c-5.057,3.351-10.992,5.632-16.811,5.496
		C636.365,449.586,635.449,449.541,635.449,449.541 M658.975,413.218c-2.963,2.479-6.789,7.536-8.615,10.164
		c-2.441,3.48-4.736,7.467-6.934,10.556c-0.473,0.693-1.89,3.176-1.838,3.261c0.096,0.175,1.524,0.12,2.988-0.127
		c3.119-0.524,7.362-2.715,9.629-4.522c3.453-2.77,5.854-6.569,6.99-11.018c0.503-2.019,0.76-6.256-0.672-8.142
		C660.243,413.029,659.525,412.746,658.975,413.218 M586.326,445.148c-0.353-0.269-0.919-0.851-1.334-1.314
		c-0.064-0.066-1.232-1.816-1.465-2.359c-0.205-0.464-0.359-0.802-0.506-1.19c-1.064-2.748-1.037-5.454-0.447-8.407
		c0.546-2.757,1.064-2.877,2.478-6.659c0.091-0.208,0.133-0.386,0.163-0.615c0.061-0.518-0.781-4.004-0.829-5.125
		c-0.06-1.709,1.269-2.923,3.489-3.155c0.202-0.018,0.355-0.015,0.504-0.061c0.885-0.214,1.452-1.913,1.938-3.272
		c0.675-1.913,1.729-4.83,1.729-4.83s-2.808-0.647-4.309-1.214c-1.678-0.633-2.947-1.453-3.706-2.992
		c-0.91-1.803-0.311-2.8,1.569-3.385c0.693-0.223,6.142-1.269,7.862-1.513c2.148-0.313,4.171-0.581,6.214-0.834
		c1.774-0.217,9.928-1.16,12.523-1.094c3.956,0.114,6.523,1.744,8.834,5.092c1.242,1.787,2.092,3.908,0.215,5.06
		c-2.881,1.751-12.219,1.884-13.932,1.901c-2.723,0.027-6.49-0.018-6.49-0.018l-1.9,6.352c0,0,6.689-0.069,10.446-0.084
		c0.913,0,1.826,0.048,2.339,0.156c1.919,0.425,2.582,1.901,2.66,4.026c0.105,2.488-0.364,3.634-2.344,3.965
		c-1.025,0.163-12.518,0.232-14.076,0.413c-0.97,0.105-1.997,0.259-1.997,0.259s-0.832,2.167-1.552,4.354
		c-0.729,2.281-1.354,4.604-1.354,4.604s0.585,0.024,1.066,0.024c0.811,0.006,1.631-0.111,2.272-0.22
		c3.505-0.646,8.718-1.417,12.993-2.089c2.299-0.367,3.457-0.53,4.665,0.995c1.049,1.347,1.591,2.477,1.663,4.106
		c0.066,1.534-1.103,2.55-2.531,3.641c-4.52,3.456-12.249,7.201-18.004,7.844c-2.661,0.301-3.309,0.003-5.639-0.603
		c-0.445-0.115-2.055-0.868-2.039-0.949C587.496,445.958,586.621,445.379,586.326,445.148z M541.491,445.918
		c-3.251-1.192-3.989-6.445-4.14-9.103c-0.516-8.648,1.771-20.684,4.674-28.79c0.831-2.308,2.024-6.077,4.606-5.863
		c1.778,0.156,3.046,1.524,4.044,2.932c2.547,3.595,5.896,8.468,8.121,11.86c2.482,3.8,4.869,7.63,7.214,11.095
		c0.286,0.42,0.558,0.826,0.874,1.086c0.425,0.343,0.807,0.361,0.979,0.045c0.082-0.124-0.072-4.493-0.18-5.37
		c-0.185-1.396-0.266-2.525-0.422-3.728c-0.435-3.495-1.549-8.416-2.42-11.74c-0.965-3.721-2.14-7.603-3.02-11.2
		c-0.28-1.172-0.543-2.354-0.533-3.465c0.009-1.612,1.043-2.505,2.721-1.901c3.309,1.166,7.693,8.347,8.971,10.839
		c0.434,0.844,2.158,5.125,2.543,6.324c1.371,4.113,2.203,8.016,2.582,12.496c0.365,4.357,0.059,10.707-1.783,15.001
		c-0.676,1.579-2.064,3.706-3.219,4.776c-1.811,1.678-5.42,2.992-7.91,1.569c-2.721-1.543-7.189-9.287-7.951-10.609
		c-2.598-4.529-7.061-13.389-7.754-14.383c-0.15-0.22-0.346-0.428-0.693-0.533c-0.262-0.079-0.367,0.47-0.434,0.822
		c-0.445,2.579-0.75,14.645-0.756,14.982c-0.076,2.031-0.175,7.009-0.76,9.462c-0.383,1.603-0.771,2.917-2.244,3.589
		C543.555,446.584,542.76,446.389,541.491,445.918 M516.36,415.789c0.224,0.021,0.28,0.03,0.485,0.061
		c3.68,0.5,7.283,1.16,10.037,2.396c2.559,1.133,4.064,2.562,5.434,5.11c2.082,3.866,2.221,9.278,0.337,13.373
		c-1.41,3.047-4.496,5.605-7.308,6.964c-2.935,1.42-5.81,2.092-9.115,2.468c-5.77,0.633-12.023-0.561-17.226-3.076
		c-3.077-1.504-6.834-4.089-8.732-7.425c-1.394-2.45-1.352-5.626,0.35-7.946c2.7-3.694,8.485-4.511,12.851-4.357
		c3.326,0.124,9.308,1.157,12.469,2.275c0.88,0.319,4.104,1.575,4.668,2.146c0.395,0.406,0.656,0.982,0.476,1.53
		c-0.726,2.206-6.081,3.369-7.626,3.602c-4.15,0.633-6.299-0.935-11.012-2.794c-1.168-0.458-2.727-0.964-3.923-1.072
		c-2.135-0.205-4.719,0.386-5.123,2.727c-0.209,1.206,1.204,2.33,2.281,2.797c2.526,1.094,4.582,1.479,7.075,1.519
		c7.341,0.111,15.594-1.094,21.609-5.352c0.828-0.585,1.633-1.449,1.645-2.531c0-0.139-0.199-1.305-0.575-1.426
		c-0.054-0.023-0.114,0.003-0.157-0.006c-0.139-0.039-0.37-0.419-0.563-0.669c-0.435-0.527-2.176-1.277-2.52-1.422
		c-4.047-1.688-11.529-2.511-15.389-2.827c-4.041-0.347-10.401-0.883-11.932-1.105c-1.57-0.223-3.28-0.533-4.646-1.148
		c-1.361-0.617-2.7-1.998-3.101-3.525c-0.703-2.76,0.201-6.147,1.731-8.355c4.017-5.777,13.415-7.965,20.448-8.835
		c6.805-0.851,17.801-0.841,24.48,2.712c1.033,0.548,1.564,1.063,1.344,2.169c-0.434,2.07-2,3.402-3.881,3.99
		c-1.974,0.63-6.068,0.873-7.865,0.985c-8.055,0.451-17.79,0.214-25.458,2.311c-0.603,0.172-1.639,0.44-1.981,0.823
		c-1.201,1.302,2.229,1.672,2.968,1.832c0.216,0.045,0.262,0.054,0.488,0.075L516.36,415.789 M464.613,413.529
		c0.265,2.401-0.357,6.942-0.46,7.542c-0.197,1.377-1.24,4.56-1.407,4.951c-0.842,1.929-1.666,3.525-2.547,5.102
		c-1.507,2.709-5.079,7-7.208,8.838c-7.894,6.825-20.12,10.713-30.611,11.993c-7.111,0.862-15.288,0.729-22.833-0.663
		c-2.592-0.479-6.449-1.362-6.449-1.362s0.009,1.543-0.118,2.634c-0.059,0.485-0.436,1.796-0.642,2.218
		c-0.553,1.134-1.451,1.715-2.756,1.962c-1.579,0.302-3.256,0.392-4.717-0.226c-2.396-1.016-3.259-3.261-3.672-5.834
		c-0.34-2.073-0.694-5.674-0.694-5.674s-1.79-0.847-3.286-1.595c-4.592-2.263-8.958-4.996-12.769-7.822
		c-1.055-0.783-5.597-4.589-6.604-5.541c-2.81-2.655-5.338-5.316-7.264-8.722c-1.496-2.66-1.925-5.025-0.79-7.843
		c1.575-3.93,7.205-6.895,11.062-8.582c2.835-1.251,11.633-4.122,15.292-4.653c1.725-0.247,4.404-0.723,4.567-0.834
		c0.068-0.049,0.117-0.094,0.164-0.151c0.083-0.12,0.225-4.014,0.197-5.433c-0.031-1.401,1.037-10.589,1.379-12.529
		c0.185-1.058,0.98-5.102,1.796-6.162c0.527-0.714,1.469-0.666,2.234-0.187c4.193,2.6,5.464,11.649,5.776,16.25
		c0.188,2.803,0.28,7.021,0.28,7.021s4.811-0.139,7.773-0.063c2.873,0.072,6.042,0.53,9.028,1.004
		c3.824,0.605,11.273,2.232,15.542,4.399c3.521,1.78,6.81,4.791,7.875,7.97c0.993,2.917,0.842,4.93-0.667,7.561
		c-1.693,2.975-4.906,5.18-8.162,5.36c-0.972,0.063-4.615-0.422-5.736-1.289c-0.444-0.353-0.419-0.977-0.098-1.398
		c0.119-0.153,1.82-1.046,2.83-1.582c0.502-0.274,0.922-0.569,1.311-0.925c0.839-0.744,1.589-1.555,1.505-2.498
		c-0.116-1.232-1.416-1.995-2.662-2.483c-5.832-2.314-17.477-4.242-23.11-4.577c-2.205-0.13-5.332-0.241-5.332-0.241l0.66,31.08
		c0,0,2.591,0.497,4.631,0.831c1.175,0.172,6.137,0.618,7.455,0.654c10.043,0.265,21.253-0.63,30.471-4.99
		c4.045-1.904,7.758-4.27,10.564-7.476c3.709-4.255,5.65-10.065,5.135-16.131c-0.565-6.639-5.232-14.503-8.954-19.294
		c-9.846-12.665-26.722-23.073-41.564-29.178c-15.16-6.229-30.138-9.821-46.229-10.421c-4.143-0.147-13.19,0.063-17.754,1.326
		c-0.66,0.184-1.315,0.407-1.922,0.536c-0.482,0.118-1.228,0.435-1.438,0.597c-0.111,0.103-0.232,0.224-0.232,0.224
		s0.283,0.153,0.553,0.273c0.483,0.214,2.523,0.335,3.578,0.524c0.938,0.181,1.929,0.685,2.311,1.377
		c0.371,0.654,0.423,1.17-0.024,1.715c-1.037,1.269-4.938,1.046-6.65,0.78c-1.782-0.289-4.002-0.828-4.412-2.383
		c-0.47-1.829,0.392-3.622,1.333-5.282c1.888-3.318,4.585-5.048,8.546-6.124c5.617-1.542,12.71-2.624,18.018-2.829
		c12.012-0.446,23.375,1.646,35.008,5.183c6.66,2.01,15.386,5.388,21.764,8.465c4.573,2.203,11.793,6.271,15.847,8.929
		c1.278,0.841,8.761,6.337,9.921,7.301c2.424,1.982,5.6,4.83,7.889,7.111c4.445,4.402,9.971,11.146,12.661,16.498
		c0.639,1.29,1.145,2.553,1.972,4.035c0.288,0.506,1.519,3.556,1.722,4.438c0.2,0.871,0.497,2.151,0.54,2.196
		C464.094,409.904,464.656,412.513,464.613,413.529z M380.496,409.97c0,0-4.592,0.325-7.746,0.678
		c-4.02,0.428-11.571,1.732-15.921,3.297c-1.313,0.458-3.969,1.569-4.201,2.91c-0.234,1.401,0.624,2.483,1.589,3.616
		c0.556,0.651,3.704,3.68,4.582,4.415c3.7,3.082,11.197,7.85,16.731,10.164c1.888,0.786,5.029,1.91,5.029,1.91
		s-0.235-8.938-0.188-17.743C380.391,414.565,380.496,409.97,380.496,409.97 M476.001,398.993c0.182,0.033,0.47,0.117,0.714,0.201
		c2.117,0.811,2.986,2.772,3.508,4.921c1.21,4.999,1.728,16.049,1.925,20.382c0.148,3.24,0.229,6.446,0.365,9.652
		c0.113,2.721,0.33,6.337-0.232,8.887c-0.207,0.919-0.818,1.974-1.697,2.524c-1.009,0.642-3.295,0.69-4.551,0.431
		c-3.101-0.642-4.11-2.633-4.549-5.697c-1.051-7.316-0.548-21.673,0.074-27.735c0.201-1.988,0.96-8.401,2.007-11.086
		C473.916,400.559,474.679,398.733,476.001,398.993 M184.885,432.597c0,0,0.509,0.892,0.91,1.561
		c2.231,3.719,5.794,5.849,10.099,6.063c4.41,0.22,10.072-2.336,13.302-4.581c9.229-6.418,14.085-17.989,16.733-29.078
		c3.12-13.003,3.262-26.72-0.457-39.303c-2.156-7.305-6.354-16.447-11.552-21.913c-1.55-1.624-3.922-3.836-4.598-4.743
		c-0.704-0.937-0.874-1.724,0.2-2.35c1.133-0.651,3.613,0.702,4.852,1.449c6.069,3.685,10.037,7.361,13.632,12.641
		c0.907,1.332,4.55,7.328,5.217,8.582c4.079,7.699,6.171,14.406,7.291,22.904c1.413,10.814,0.509,23.097-3.236,33.938
		c-1.636,4.758-4.16,9.655-6.789,13.783c-0.623,0.971-4.455,6.12-4.927,6.627c-1.318,1.386-4.573,4.206-6.095,5.433
		c-7.61,6.104-15.829,10.109-24.852,9.004c-4.961-0.612-9.034-2.257-13.008-5.487c-1.525-1.251-4.098-3.86-5.129-5.717
		c-0.669-1.189-1.502-2.64-1.611-2.657c-0.117-0.027-0.559,0.271-1.04,0.608c-0.42,0.289-2.206,1.121-3.153,1.471
		c-6.189,2.309-13.114,1.766-18.801-1.926c-4.125-2.667-7.615-7.741-9.158-12.343c-2.273-6.822-2.456-13.888-1.531-21.145
		c1.583-12.315,6.018-23.982,12.627-34.31c4.17-6.509,9.581-12.936,16.035-17.543c0.725-0.527,4.663-2.814,5.468-3.186
		c1.457-0.687,3.395-1.316,4.514-0.12c0.583,0.62,0.565,1.124,0.133,1.94c-0.684,1.269-2.438,2.989-3.407,4.02
		c-0.839,0.907-5.594,6.738-6.575,8.1c-1.078,1.459-5.916,8.706-6.551,9.82c-6.104,10.568-10.95,27.311-10.481,40.295
		c0.099,2.682,0.494,6.548,1.095,9.066c0.818,3.394,2.838,7.988,5.872,10.131c3.194,2.267,6.153,2.137,9.977,0.618
		c1.014-0.41,2.458-1.061,2.458-1.061s-1.113-2.854-1.842-5c-2.002-5.957-2.807-15.461-2.07-22.003
		c0.607-5.363,1.805-9.471,4.23-13.729c1.932-3.411,4.532-6.762,7.782-9.531c3.132-2.673,8.136-4.999,12.54-5.116
		c3.66-0.088,7.449,1.507,9.372,4.833c3.339,5.786,3.551,14.916,2.609,20.934c-1.413,9.098-6.125,17.643-12.922,23.432
		C189.608,429.083,184.885,432.597,184.885,432.597 M194.037,392.954c0,0-0.107-2.706-0.333-4.216
		c-0.188-1.277-0.444-2.235-1.052-3.212c-0.667-1.069-1.177-1.742-2.228-1.904c-1.29-0.187-2.002,0.693-2.809,1.959
		c-1.07,1.717-2.138,4.905-2.768,6.918c-0.91,2.866-1.296,4.622-1.783,7.883c-0.806,5.343-1.621,14.434-0.753,20.617
		c0.16,1.063,0.425,2.622,0.425,2.622s1.291-1.447,2.231-2.459c0.401-0.438,2.314-3.297,2.485-3.599
		c0.33-0.572,1.216-2.085,1.339-2.393c0.188-0.331,1.567-3.29,1.808-3.983c0.462-1.329,1.134-3.369,1.654-4.999
		c1.211-3.751,0.996-5.141,1.782-9.308c0.09-0.477,0.167-3.927,0.08-3.927C194.08,392.942,194.037,392.954,194.037,392.954
		 M241.896,420.546c0,0,1.151-2.588,2.046-4.544c0.94-2.055,5.695-11.604,7.655-14.304c2.171-3.02,6.325-8.715,6.36-8.887
		c0.089-0.627,0.225-1.741,0.808-2.634c0.454-0.708,1.574-1.009,2.664-1.078c1.206-0.073,2.456,0.819,2.999,1.813
		c1.045,1.89,2.829,7.266,3.215,8.549c2.084,7.153,4.333,20.518,5.07,27.385c0.191,1.803,0.789,11.188,0.836,13.302
		c0.044,1.485,0,3.947-0.851,5.161c-0.315,0.464-0.919,0.85-1.504,0.841c-0.786-0.03-2.372-1.13-3.066-1.777
		c-1.922-1.814-3.203-3.658-3.613-5.912c-0.353-1.962-0.85-7.594-0.85-7.594l-8.38,0.334l-4.669,0.078c0,0-0.441,1.088-0.802,1.998
		c-0.78,1.943-1.481,3.888-1.784,4.979c-0.61,2.193-1.787,6.545-2.067,7.223c-0.589,1.429-1.107,2.257-2.494,2.44
		c-1.537,0.202-2.591,0.313-3.702-0.289c-2.093-1.147-3.046-3.573-3.4-6.075c-0.624-4.261,1.101-7.698,2.872-12.752
		c0.744-2.128-0.28-2.833-2.044-5.599c-0.229-0.355-0.464-0.727-0.506-1.013c-0.062-0.283,0.209-1.021,0.595-1.326
		c0.121-0.1,0.154-0.111,0.374-0.12L241.896,420.546 M254.756,420.137c0,0,0.731,0.012,1.484,0c2.397-0.03,6.418-0.471,6.418-0.471
		s-0.45-3.54-0.815-5.798c-0.247-1.509-0.444-2.44-0.769-3.637c-0.147-0.53-0.515-2.046-0.901-2.637
		c-0.068-0.12-0.167-0.247-0.167-0.247s-1.94,3.746-3.027,6.355c-0.863,2.07-1.295,3.612-1.9,4.869
		c-0.145,0.292-0.306,0.696-0.324,1.04C254.738,419.854,254.756,420.137,254.756,420.137 M302.293,424.551
		c0.105,0.006,0.265,0.058,0.405,0.117c1.711,0.748,1.711,3.807,1.299,5.244c-1.112,3.784-4.699,7.689-7.563,9.633
		c-1.708,1.143-5.208,2.767-7.711,3.246c-3.916,0.75-7.384-0.287-9.479-3.454c-1.896-2.868-2.731-6.412-2.882-9.745
		c-0.433-9.57,2.585-23.546,6.301-31.534c0.5-1.072,2.956-6.065,5.239-6.87c2.272-0.802,3.271,1.862,3.497,3.851
		c0.289,2.562-0.527,5.955-1.175,8.703c-1.142,4.803-2.781,12.315-3.17,14.467c-0.41,2.278-1.361,7.153-1.019,9.64
		c0.176,1.322,0.426,1.982,1.43,1.901c0.457-0.039,6.884-2.995,10.392-4.307C299.171,424.955,300.806,424.428,302.293,424.551
		 M337.538,395.593c1.461,1.832,2.123,3.978,2.286,6.337c0.164,2.375-0.595,4.662-1.919,6.473c-2.271,3.086-6.06,4.626-9.861,4.909
		c-0.521,0.036-3.624,0.126-4.419-0.121c-0.145-0.051-0.235-0.108-0.315-0.084c-0.089,0.009-0.61,2.148-0.707,2.896
		c-0.339,2.628-0.752,4.484-1.055,6.551c-0.253,1.643-0.435,3.405-0.58,5.156c-0.858,10.215-0.562,15.26,0.283,25.255
		c0.059,0.608,0.091,1.305,0,1.724c-0.228,1.199-0.957,2.037-2.129,2.338c-3.524,0.925-6.893-2.562-8.621-5.349
		c-4.036-6.521-2.718-19.846-1.555-26.427c0.475-2.725,1.714-8.774,2.576-10.953c0.457-1.173,1.188-3.478,1.132-3.589
		c-0.048-0.103-1.894-0.805-3.584-1.456c-0.636-0.231-2.768-1.341-3.682-1.907c-1.879-1.178-3.166-2.14-4.464-3.604
		c-0.395-0.458-1.71-2.411-1.904-2.845c-1.049-2.39-1.11-4.469-0.178-7.009c0.236-0.651,1.546-3.394,2.415-3.309
		c1.253,0.111,0.978,2.185,1.309,3.26c0.107,0.371,0.46,0.988,0.737,1.32c1.734,2.046,7.558,4.312,9.942,5.023
		c0.342,0.108,4.073,1.244,4.618,0.994c0.146-0.069,0.855-1.329,1.309-2.092c0.244-0.431,0.519-0.747,0.818-1.072
		c2.268-2.441,5.618-4.752,8.954-5.437c1.469-0.295,4.347-0.048,5.803,0.781C335.078,393.547,336.164,393.975,337.538,395.593
		 M326.559,402.084c2.509-0.154,4.063-0.274,6.022-1.124c1.083-0.458,2.337-1.516,1.719-2.772c-0.374-0.771-1.699-1.04-2.474-0.982
		c-2.626,0.175-4.519,2.106-5.417,4.688C326.377,401.988,326.386,402.084,326.559,402.084 M470.606,389.672
		c-0.405,0.425-0.833,1.474-1.284,2.229c-0.238,0.401-0.682,0.919-0.973,1.121c-1.027,0.757-1.894,0.793-2.895-0.081
		c-1.387-1.224-2.19-3.134-2.249-4.984c-0.03-0.811,0.103-1.696-0.042-2.387c-0.256-1.147-1.41-2.329-2.028-3.429
		c-0.728-1.305-1.317-3.562-1.388-5.018c-0.256-4.55,2.144-8.732,5.26-12.041c3.135-3.342,7.236-6.117,11.701-8.003
		c4.216-1.784,10.399-2.992,15.03-1.387c1.504,0.519,3.607,1.802,4.663,3.14c0.222,0.283,0.407,0.591,0.639,0.735
		c0.2,0.13,0.74,0.185,1.169,0.26c1.481,0.256,3.611,1.374,4.476,2.118c1.738,1.507,2.7,2.95,3.143,5.038
		c0.89,4.2-1.53,8.811-4.287,11.613c-4.724,4.837-9.385,8.227-15.427,10.598c-2.647,1.037-6.78,2.001-9.792,1.729
		c-0.931-0.075-1.897-0.319-2.804-0.389c-0.459-0.039-2.161-0.47-2.34-0.605C470.954,389.769,470.667,389.615,470.606,389.672
		 M480.667,382.284c3.951-0.266,7.652-1.41,11.094-3.314c3.378-1.89,8.342-5.572,7.836-9.911c-0.163-1.398-1.076-2.459-2.236-2.956
		c-1.513-0.657-2.296-0.539-4.225,0.024c-1.395,0.412-2.021,0.659-3.339,1.416c-3.881,2.254-9.372,7.069-12.354,10.917
		c-0.691,0.901-1.389,1.917-1.929,2.606c-0.353,0.425-0.615,0.823-0.583,0.932C475.049,382.437,479.122,382.395,480.667,382.284
		 M466.77,378.565c0,0,1.308-1.962,2.406-3.456c2.002-2.715,5.623-6.479,8.344-8.811c0.839-0.712,1.817-1.522,1.817-1.522
		s-1.54,0.16-2.406,0.338c-2.067,0.406-5.1,2.42-6.619,3.722c-2.5,2.136-5.247,5.616-4.008,8.702
		C466.49,377.981,466.77,378.565,466.77,378.565"/>
	<path d="M573.366,137.041c-0.364-4.033-2.387-7.054-8.624-9.893c-4.749-2.158-9.865-3.58-15.049-4.567
		c-5.177-3.937-11.225-6.35-17.215-4.03c-0.973,0.386-1.883,0.945-2.736,1.63c-5.418-0.454-10.58-0.889-15.133-1.683
		c1.592-1.57,3.281-3.134,5.141-4.556c0.371-0.081,0.717-0.188,1.07-0.288c15.883-4.708,21.65-16.029,20.629-27.62
		c2.236-1.805,3.857-4.238,4.602-6.994c2.784-10.52-7.835-15.917-13.223-11.079c-1.814,1.624-3.365,4.262-4.532,7.063
		c-1.331-0.018-2.637,0.155-3.872,0.524c-0.78-27.261-22.461-39.832-39.152-38.294c9.775-9.215,6.137-23.325-2.055-30.777
		c-8.178-7.437-25.738-10.29-36.25,1.435c-12.343,13.762-5.017,35.661,11.139,36.6c-6.239,3.44-11.824,8.563-14.512,15.542
		c-1.302-12.935-14.616-22.537-27.739-17.03c-14.601,6.144-18.143,25.497-12.006,38.988c6.539,14.354,27.135,15.678,36.854,4.104
		c2.01,11.811,9.208,22.731,19.903,29.573c-10.449,0.98-25.053,4.152-34.479,8.044c-6.48-3.694-12.053-1.367-13.772,3.098
		c-18.05,4.137-26.41,31.177-9.007,38.411c2.105,2.631,5.29,4.597,9.248,5.071c1.626,2.602,4.205,4.666,8.38,5.323
		c9.042,1.413,15.377-7.491,15.763-14.561c5.588-2.21,8.901-5.573,9.39-12.062c0.447-5.863-3.993-11.018-8.724-14.798
		c8.977-2.944,22.521-6.52,39.215-4.953c0.559,7.44-3.327,12.84-10.046,18.449c-10.27,8.559-22.199,11.618-25.645,28.094
		c-0.58,2.691-0.803,5.221-0.784,7.582c-12.516,3.972-28.462,2.043-43.52-3.604c-39.052-14.642-80.615-47.056-113.65-23.078
		c36.342-22.191,74.842,10.904,112.776,25.16c22.719,8.52,36.485,8.097,44.662,5.443c0.657,4.918,2.406,9.201,4.523,13.235
		c-3.931,2.505-9.352,2.69-13.45,2.505c-1.36-4.966-5.471-7.069-9.051-6.304c-1.77-2.494-5.474-3.358-8.813-2.935
		c-8.72,1.083-25.632,27.635-16.844,46.296c9.415,20,46.621,16.844,53.132-1.07c2.441-6.721-2.396-16.44-14.975-17.17
		c-0.633-0.033-1.716-0.119-2.379-0.092c-0.415-0.697-1.163-1.719-2.102-2.314c0.537-0.713,0.972-1.583,1.287-2.585
		c7.535,0.422,16.28-1.716,20.287-3.944c2.423,4.598,3.676,8.319,3.895,9.035c0.676,2.161,6.878,0.012,13.608-3.7
		c6.834,9.236,14.119,21.036,19.1,30.372c-3.351,5.265-5.224,11.513-1.308,14.263c0.635,0.453,1.347,0.709,2.123,0.798
		c-3.003,8.276,2.427,17.928,16.391,15.956c16.348-2.301,35.488-18.838,40.67-40.196c6.133-25.312-13.313-37.413-27.447-28.842
		c-8.244,4.987-13.636,14.639-15.721,25.149c-0.715-0.503-2.448-0.454-3.684,0c-2.822-5.533-10.462-18.475-16.825-27
		c2.824-3.027,2.804-4.938,2.073-5.718c-0.232-0.262-0.515-0.609-0.83-1.013c10.587-13.596,21.764-17.251,30.424-42.224
		c2.547-7.378,3.137-17.433,1.666-26.243c2.148,0.129,4.861,0.376,6.662,0.598c-0.152,1.61-0.237,3.4,0.092,5.264
		c0.207,1.213,0.889,2.974,1.295,3.629c-2.637,1.203-4.652,3.993-3.45,7.321c1.021,2.784,4.216,3.78,6.358,6.005
		c2.814,2.95,4.248,4.859,6.496,5.023c3.52,0.262,6.307-3.431,5.759-7.52c1.284,0.114,3.559,0.212,4.917-0.062
		c1.293,3.622,5.168,5.838,8.404,5.729c3.505-0.104,6.943-1.917,8.531-4.985c0.841,0.129,1.777,0.147,2.89-0.105
		c5.313-1.213,8.302-5.497,8.813-8.618C575.35,143.854,575.785,139.959,573.366,137.041"/>
	<path fill="#FFFFFF" d="M523.33,75.923c-0.512,0.182-1.013,0.395-1.488,0.65c-0.189-2.511-0.604-5.735-1.296-8.277
		c-2.327-8.517-7.009-14.268-9.712-12.896c-2.212,1.128-0.301,7.355,2.67,16.934c1.217,3.956,2.131,7.137,3.037,9.307
		c-0.808,1.41-1.322,2.984-1.488,4.657c3.127-6.854,9.027-9.313,12.729-9.992c-0.816,2.191-1.384,4.375-1.654,6.174
		c-0.643,4.472,3.465,7.27,8.195,6.61c2.031-0.291,3.924-0.972,5.545-1.953c0.883,8.757-4.475,20.167-19.704,24.57
		c-17.157,4.956-32.707-2.959-37.537-15.734c2.814-0.536,5.718-0.678,8.35-0.365c-7.315-2.668-17.421,0.482-19.593,5.823
		c1.841-2.049,4.714-3.613,7.977-4.634c7.111,7.967,3.786,24.624,14.23,28.085c9.316,3.086,14.07-4.913,19.914-9.893
		c1.35-0.1,2.697-0.271,4.05-0.533c-8.055,6.437-13.497,15.755-22.875,13.992c-9.875-1.849-11.232-10.07-13.771-13.064
		c0.33,1.519,1.264,3.91,2.135,6.024c-9.222-0.577-15.295-3.283-20.658-6.527c-15.012-11.753-5.099-34.169,23.44-28.28
		c-13.709-12.835-16.977-37.166-6.787-44.868c7.214-5.479,18.446,2.546,21.217,6.972c0-1.752-0.136-5.161,0.123-7.323
		C516.607,48.119,523.191,64.658,523.33,75.923"/>
	<path fill="#FFFFFF" d="M559.71,132.265c4.725-0.723,17.32,5.338,13.222,11.537C572.182,139.346,567.849,138.098,559.71,132.265"/>
	<path d="M563.998,128.729c4.583,2.221,6.289,3.819,7.313,6.298c-3.438-2.729-9.172-4.975-12.866-3.715
		c-0.995-1.089-3.927-4.517-5.931-6.348C556.651,125.87,560.557,127.074,563.998,128.729"/>
	<path d="M517.301,80.466c-0.703-2.164-1.492-5.188-2.502-8.565c-0.023-0.1-0.051-0.188-0.08-0.282
		c0.922-0.08,2.244,2.311,2.977,5.458c0.205,0.845,0.332,1.654,0.412,2.408C517.824,79.795,517.554,80.119,517.301,80.466"/>
	<path fill="#FFFFFF" d="M518.895,78.673c-0.088-0.58-0.195-1.175-0.338-1.793c-0.879-3.758-2.711-6.536-4.098-6.206
		c-0.012,0-0.021,0.004-0.03,0.011c-2.306-7.511-4.61-13.543-2.979-14.541c1.49-0.904,5.785,4.068,7.876,12.658
		c0.819,3.358,1.274,6.159,1.446,8.399C520.105,77.636,519.464,78.126,518.895,78.673"/>
	<path fill="#FFFFFF" d="M497.494,119.734c-0.043-1.439-0.376-2.771-0.933-3.936c2.976-0.811,7.123,0.347,9.195,4.866
		c-3.293,2.765-6.846,4.625-11.551,3.036c-4.567-1.526-6.113-5.507-7.357-10.388C492.097,111.281,495.722,114.914,497.494,119.734"
		/>
	<path d="M506.627,119.928c-1.66-4.216-6.082-6.583-10.541-4.961c-1.901-3.071-5.544-4.599-9.51-2.75
		c-1.204-4.975-2.32-10.741-6.015-15.777c0.309-0.08,0.618-0.166,0.936-0.234c3.984,11.99,16.885,19.285,30.37,18.88
		C510.078,116.639,508.375,118.382,506.627,119.928"/>
	<path d="M441.066,83.967c-10.219,12.077-29.069,10.507-35.447-2.694c-4.987-10.318-3.136-30.409,10.978-36.663
		c14.059-6.236,26.336,6.33,26.247,19.449c4.65-10.602,11.808-17.12,18.894-20.189c-20.286-0.183-23.668-23.528-13.497-34.896
		c10.238-11.464,27.73-7.174,33.861-1.021c8.942,8.921,10.408,22.112,0.194,30.421c6.548-0.241,12.21,0.738,17.036,2.574
		c-0.225,1.737-0.083,4.304-0.009,5.243c-3.816-4.839-13.73-10.619-20.932-5.49c-11.264,8.001-7.175,32.667,5.017,44.573
		c-23.866-4.308-35.535,13.37-26.377,25.767C448.29,103.706,443.208,93.577,441.066,83.967"/>
	<path fill="#FFFFFF" d="M419.714,127.065c1.21-0.859,2.75-1.707,4.526-2.522c-8.683-4.087-15.381,5.811-6.248,13.775
		c7.779,6.77,17.545,2.939,16.947-3.268c-2.349,0.802-4.817,1.685-6.055,2.052C421.809,139.219,416.092,129.624,419.714,127.065"/>
	<path fill="#FFFFFF" d="M436.691,135.483c0.228,7.355-10.794,12.119-20.094,3.668c-3.984-3.635-5.245-7.634-4.659-10.871
		c-14.342,4.662-22.433,25.787-10.001,34.809c-1.274-2.447-1.725-5.168-1.154-7.665c0.959,8.05,6.524,12.074,10.89,13.141
		c-1.472-3.345-1.775-7.202-1.954-10.152c2.323,7.166,3.156,13.953,11.34,15.348c9.013,1.546,15.523-9.855,14.221-15.387
		c-1.253,3.144-2.912,6.248-5.564,6.923c3.077-3.807,4.009-9.593,7.637-12.464c-0.444,0.999-0.886,2.314-1.398,3.711
		c0.414,0.85,0.652,1.831,0.747,2.873c4.345-2.141,7.036-4.623,7.566-10.5C444.68,144.334,441.24,139.605,436.691,135.483"/>
	<path d="M477.641,127.928c-24.947-2.73-43.551,6.08-49.129,7.687c-5.583,1.605-9.742-6.088-7.728-7.545
		c7.635-5.464,28.124-9.667,42.006-11.077c6.442,3.645,12.552,5.8,20.934,5.958c1.999,3.333,5.38,6.184,10.86,7.176
		c7.006,1.26,11.544-2.945,16.507-8.041c4.125,9.465,4.975,21.649,2.953,31.647c-13.467,12.037-39.267,10.465-47.405-3.527
		c0.413-0.33,0.816-0.665,1.234-1.007C474.005,144.057,479.134,136.605,477.641,127.928"/>
	<path fill="#FFFFFF" d="M422.836,224.274c-5.751-0.898-10.556,0.451-13.058,3.401c2.661-1.302,6.959-2.234,10.476-2.158
		c-3.239,1.725-6.121,3.972-8.112,6.595c6.413-4.66,14.436-8.909,22.883-8.409c11.083,0.654,15.625,9.266,13.494,14.736
		c-6.138,15.716-40.87,19.727-49.78,0.933c-8.37-17.653,7.667-43.171,15.443-44.211c2.418-0.306,5.224,0.512,6.804,2.064
		c-3.132,1.407-5.912,5.005-6.209,11.362c-0.556,12.068,9.729,15.52,14.61,11.984c0.361,0.247,1.086,0.976,1.303,1.495
		C428.103,222.423,425.41,223.185,422.836,224.274"/>
	<path fill="#FFFFFF" d="M416.141,208.947c0.547-11.645,11.071-13.835,13.734-5.998c-1.216-0.064-2.947-0.2-3.684-0.15
		c-5.823,0.324-5.653,10.75-0.523,12.823c1.365,0.559,2.864,0.904,4.422,1.107C427.555,223.485,415.601,220.577,416.141,208.947"/>
	<path d="M426.404,214.228c-4.452-1.71-3.866-10.119-0.126-10.119c3.104,0,12.561,1.713,19.359-2.264
		c1.814,3.298,3.819,6.445,5.612,9.661C445.041,214.879,432.195,216.434,426.404,214.228"/>
	<path fill="#FFFFFF" d="M458.279,221.112c1.591-2.46,4.36-5.15,7.532-7.659c0.818,1.011,1.635,2.073,2.487,3.184
		C464.026,219.057,460.025,220.948,458.279,221.112"/>
	<path d="M478.258,205.693c6.729,8.513,19.583,28.878,21.155,32.767c1.523,3.767-3.2,13.612-6.759,15.387
		c-3.896-9.489-17.522-31.878-25.708-41.276C470.698,209.75,474.861,207.239,478.258,205.693"/>
	<path fill="#FFFFFF" d="M503.002,237.678c-1.103,6.962-0.766,14.179,1.166,20.585c-2.145-18.894,4.023-38.852,15.811-46.066
		c14.381-8.803,30.089,4.419,24.475,26.617c-4.715,18.64-20.75,35.467-38.89,38.979c-10.955,2.128-17.889-5.738-14.559-14.131
		c2.823-0.436,5.647-2.805,6.122-5.847c-2.642,3.701-7.029,5.279-8.977,3.881c-1.958-1.401-1.535-6.351,1.43-11.244
		c1.03,1.987,1.943,3.848,2.709,5.505c6.14-3.018,9.915-13.596,8.5-17.865c-0.044-0.139-0.373-0.707-0.438-0.857
		C501.042,237.176,502.447,237.153,503.002,237.678"/>
	<path fill="#FFFFFF" d="M481.707,207.292c-0.626-0.821-1.225-1.589-1.79-2.296c1.466-0.559,2.7-0.874,3.614-0.883
		C483.723,204.653,483.235,205.72,481.707,207.292"/>
	<path fill="#FFFFFF" d="M482.849,200.32c-0.868-1.252-1.91-2.783-3.104-4.461c3.554-1.216,7.547-3.875,9.063-6.28
		c-1.923,1.484-6.2,3.672-10.057,4.885c-2.856-3.913-6.442-8.347-10.531-11.704c4.363,5.026,11.332,15.943,14.176,19.847
		c-6.76,0.821-20.899,10.229-25.374,17.159c-0.595-1.607-1.838-4.505-3.884-8.276c-6.324-11.689-12.525-21.032-9.989-34.802
		c2.648-14.386,12.998-18.466,22.503-25.716c6.512,13.141,32.354,17.996,47.984,4.609c-0.296,1.195-0.615,2.382-1.01,3.482
		C504.127,184.017,492.615,188.271,482.849,200.32"/>
	<path d="M515.846,131.804c-0.823-4.048-2.017-7.282-3.818-10.688c0.575-0.592,1.156-1.178,1.732-1.779
		c4.216,1.088,9.164,1.755,14.418,2.335c-2.705,2.986-4.404,6.627-5.131,10.842C520.705,132.174,517.849,131.965,515.846,131.804"/>
	<path fill="#FFFFFF" d="M527.85,154.807c-2.091-1.832-4.622-3.307-5.264-5.121c-0.938-2.62,0.557-4.383,2.612-5.222
		c1.995,1.984,4.149,3,6.479,3.056c0.808,2.854,3.475,5.123,6.374,6.18c0.211,2.691-1.601,6.384-4.541,6.184
		C531.695,159.763,530.83,157.412,527.85,154.807"/>
	<path fill="#FFFFFF" d="M563.742,153.111c-2.345,0.539-3.234,0.046-4.93-0.33c1.311-0.859,2.353-1.957,2.949-3.521
		c-3.721,3.601-6.574,3.601-7.819,5.708c1.193-0.429,2.354-0.865,3.417-1.377c0.982,0.182,1.85,0.494,2.764,0.744
		c-1.727,2.271-4.691,3.805-7.398,3.895c-2.971,0.085-6.313-2.052-7.15-5.4c-0.84-3.35,1.302-8.841,5.768-13.399
		c-5.554,2.599-8.082,9.21-7.34,13.265c-4.945,0.597-9.881-2.123-10.713-6.161c-0.865-4.219,0.561-10.304,6.951-17.5
		c-6.674,4.354-9.645,11.844-8.85,17.2c-4.035-0.738-6.262-4.069-6.779-7.337c-1.14-7.036,3.566-17.033,8.437-18.977
		c12.089-4.839,24.251,13.15,29.958,18.105c-0.557-1.015-1.419-2.379-2.506-3.91c5.833,5.167,10.877,6.314,11.185,10.31
		C572.062,149.136,566.475,152.493,563.742,153.111"/>
	<path d="M533.906,87.541c-3.82,0.61-7.029-1.263-6.328-5.332c0.658-3.728,3.177-9.884,5.988-12.758
		c4.215-4.281,12.807,0.045,10.703,9.031C543.154,83.236,538.664,86.785,533.906,87.541"/>
	<path d="M410.093,137.842c-2.623,2.331-7.167,7.363-8.571,9.869C400.786,144.461,406.739,138.498,410.093,137.842"/>
	<path d="M412.512,140.354c-3.259,2.055-7.917,9.035-6.619,11.726C407.861,149.016,408.691,146.133,412.512,140.354"/>
	<path d="M416.597,143.06c-2.138,2.691-4.373,8.008-3.622,10.893C413.997,152.181,415.943,146.227,416.597,143.06"/>
	<path d="M474.21,186.049c-5.894-1.852,2.005-21.753,8.648-19.71C489.245,168.31,481.257,188.271,474.21,186.049"/>
	<path fill="#FFFFFF" d="M474.596,185.266c-4.042-1.216,3.208-19.235,7.985-17.992C487.11,168.462,479.146,186.626,474.596,185.266"
		/>
	<path d="M492.239,184.639c-3.521-2.236,5.847-20.399,10.281-18.311c1.68,0.797,2.378,5.653-1.133,11.208
		C498.451,182.153,494.729,186.244,492.239,184.639"/>
	<path fill="#FFFFFF" d="M492.859,183.89c-2.016-1.333,6.729-17.889,9.158-16.664c1.199,0.6,0.783,5.302-1.812,9.563
		C497.565,181.085,494.062,184.688,492.859,183.89"/>
	<path d="M509.652,87.14c3.821-1.235,3.794-8.838,1.588-16.755c-2.045-7.34-6.484-14.577-11.14-13.005
		c-4.659,1.598-3.257,10.531-0.774,17.658C501.885,82.397,506.486,88.151,509.652,87.14"/>
	<path d="M507.212,80.619c-1.456-3.575-3.604-6.094-4.782-5.609c-0.518,0.212-0.771,0.962-0.762,2.058
		c1.939,4.604,4.646,8.656,6.789,9.183C508.517,84.856,508.101,82.795,507.212,80.619"/>
	<path fill="#FFFFFF" d="M510.026,70.938c-2.063-7.66-6.13-13.824-9.562-12.621c-3.489,1.241-2.014,9.866,0.346,16.537
		c0.049,0.135,0.1,0.259,0.148,0.397c0.215-0.639,0.545-1.092,1.037-1.274c1.696-0.707,4.459,2.105,6.156,6.26
		c0.895,2.219,1.316,4.372,1.241,6c0.006-0.008,0.006-0.008,0.019-0.008C512.082,85.338,512.25,79.232,510.026,70.938"/>
	<path d="M573.104,137.056c-0.377-4.033-2.361-7.038-8.608-9.884c-4.737-2.162-9.835-3.566-15.046-4.561
		c-5.146-3.914-11.186-6.334-17.154-4.014c-0.974,0.374-1.877,0.938-2.736,1.629c-5.412-0.46-10.55-0.895-15.1-1.685
		c1.578-1.573,3.266-3.135,5.129-4.552c0.352-0.098,0.714-0.172,1.069-0.289c15.832-4.696,21.6-15.997,20.587-27.57
		c2.238-1.799,3.848-4.222,4.584-6.98c2.781-10.491-7.803-15.891-13.193-11.05c-1.802,1.621-3.348,4.253-4.522,7.039
		c-1.323-0.009-2.624,0.167-3.866,0.53c-0.766-27.221-22.422-39.758-39.08-38.221c9.751-9.198,6.134-23.289-2.04-30.724
		c-8.177-7.437-25.704-10.29-36.197,1.417c-12.32,13.741-5.008,35.603,11.108,36.548c-6.215,3.441-11.787,8.554-14.486,15.513
		c-1.293-12.919-14.58-22.503-27.679-17c-14.577,6.135-18.113,25.457-11.978,38.92c6.513,14.33,27.073,15.649,36.783,4.087
		c2.005,11.809,9.177,22.695,19.85,29.524c-10.42,0.993-24.991,4.146-34.398,8.021c-6.474-3.684-12.038-1.357-13.756,3.095
		c-18.021,4.139-26.351,31.119-8.985,38.361c2.097,2.602,5.279,4.589,9.236,5.052c1.62,2.604,4.199,4.652,8.362,5.3
		c9.007,1.416,15.341-7.467,15.727-14.527c5.585-2.188,8.883-5.553,9.371-12.04c0.454-5.856-3.98-10.988-8.695-14.769
		c8.957-2.941,22.475-6.516,39.139-4.949c0.561,7.428-3.309,12.819-10.035,18.422c-10.254,8.542-22.152,11.598-25.603,28.045
		c-0.568,2.694-0.789,5.19-0.774,7.566c-12.493,3.967-28.413,2.042-43.435-3.601c-38.985-14.618-80.474-46.961-113.45-23.025
		c36.269-22.159,74.703,10.886,112.579,25.107c22.683,8.52,36.416,8.094,44.575,5.435c0.664,4.906,2.401,9.185,4.515,13.206
		c-3.925,2.506-9.332,2.691-13.423,2.506c-1.37-4.956-5.464-7.054-9.032-6.292c-1.764-2.468-5.468-3.351-8.803-2.935
		c-8.701,1.083-25.576,27.587-16.81,46.228c9.39,19.957,46.529,16.81,53.045-1.086c2.429-6.706-2.4-16.406-14.965-17.117
		c-0.617-0.039-1.706-0.126-2.363-0.098c-0.42-0.704-1.167-1.716-2.105-2.312c0.542-0.715,0.978-1.586,1.278-2.579
		c7.535,0.435,16.255-1.722,20.257-3.943c2.415,4.582,3.674,8.315,3.899,9.013c0.686,2.153,6.869,0.012,13.575-3.683
		c6.822,9.224,14.095,21.004,19.059,30.32c-3.342,5.246-5.203,11.485-1.296,14.243c0.636,0.454,1.357,0.688,2.108,0.79
		c-2.988,8.253,2.444,17.896,16.373,15.932c16.319-2.297,35.421-18.814,40.589-40.136c6.147-25.266-13.276-37.335-27.4-28.791
		c-8.226,4.982-13.607,14.619-15.675,25.098c-0.724-0.491-2.451-0.433-3.676,0c-2.84-5.518-10.452-18.437-16.808-26.941
		c2.83-3.021,2.799-4.931,2.067-5.711c-0.234-0.256-0.506-0.595-0.824-1.013c10.572-13.567,21.728-17.208,30.367-42.155
		c2.543-7.348,3.137-17.394,1.666-26.191c2.148,0.139,4.86,0.379,6.653,0.604c-0.147,1.609-0.235,3.389,0.084,5.24
		c0.214,1.207,0.88,2.98,1.306,3.625c-2.646,1.207-4.662,4.006-3.445,7.322c1.021,2.775,4.213,3.774,6.344,6
		c2.799,2.937,4.246,4.835,6.49,5.011c3.502,0.25,6.305-3.432,5.746-7.511c1.275,0.115,3.553,0.221,4.9-0.05
		c1.293,3.598,5.158,5.816,8.406,5.709c3.48-0.115,6.928-1.926,8.498-4.984c0.855,0.146,1.77,0.155,2.893-0.098
		c5.313-1.213,8.283-5.497,8.793-8.6C575.087,143.845,575.523,139.953,573.104,137.056"/>
	<path fill="#FFFFFF" d="M523.158,76.025c-0.512,0.204-1.004,0.413-1.488,0.654c-0.182-2.505-0.597-5.714-1.302-8.264
		c-2.312-8.492-7.003-14.222-9.694-12.861c-2.215,1.127-0.298,7.337,2.667,16.915c1.227,3.919,2.14,7.107,3.038,9.283
		c-0.799,1.401-1.326,2.962-1.486,4.641c3.125-6.837,9.014-9.298,12.698-9.964c-0.811,2.173-1.38,4.36-1.64,6.153
		c-0.647,4.458,3.46,7.261,8.176,6.596c2.049-0.277,3.914-0.975,5.553-1.947c0.871,8.745-4.492,20.134-19.688,24.522
		c-17.13,4.953-32.637-2.95-37.463-15.698c2.805-0.542,5.708-0.678,8.341-0.375c-7.313-2.664-17.403,0.496-19.567,5.828
		c1.843-2.052,4.716-3.613,7.952-4.635c7.119,7.952,3.774,24.577,14.206,28.03c9.316,3.098,14.038-4.891,19.88-9.861
		c1.351-0.103,2.696-0.282,4.05-0.535c-8.051,6.415-13.473,15.719-22.838,13.963c-9.855-1.852-11.212-10.048-13.738-13.043
		c0.327,1.52,1.266,3.902,2.123,6.01c-9.204-0.577-15.258-3.277-20.611-6.516c-14.995-11.726-5.104-34.103,23.392-28.212
		c-13.685-12.814-16.944-37.104-6.771-44.81c7.199-5.456,18.407,2.558,21.177,6.97c0-1.752-0.143-5.159,0.112-7.315
		C516.441,48.294,523.025,64.793,523.158,76.025"/>
	<path fill="#FFFFFF" d="M559.479,132.292c4.715-0.733,17.277,5.314,13.191,11.513C571.929,139.337,567.599,138.101,559.479,132.292
		"/>
	<path d="M563.748,128.765c4.592,2.216,6.289,3.795,7.322,6.277c-3.441-2.718-9.173-4.975-12.857-3.716
		c-0.992-1.086-3.902-4.511-5.91-6.335C556.432,125.902,560.318,127.083,563.748,128.765"/>
	<path d="M517.138,80.576c-0.708-2.165-1.489-5.186-2.501-8.549c-0.027-0.1-0.057-0.196-0.072-0.285
		c0.925-0.077,2.244,2.308,2.977,5.453c0.202,0.833,0.32,1.648,0.404,2.4C517.665,79.901,517.391,80.24,517.138,80.576"/>
	<path fill="#FFFFFF" d="M518.717,78.787c-0.076-0.58-0.172-1.177-0.328-1.793c-0.865-3.742-2.709-6.523-4.084-6.189
		c-0.012,0-0.033,0.009-0.033,0.009c-2.305-7.496-4.607-13.522-2.971-14.515c1.486-0.904,5.777,4.058,7.859,12.643
		c0.822,3.345,1.273,6.133,1.449,8.38C519.932,77.757,519.311,78.243,518.717,78.787"/>
	<path fill="#FFFFFF" d="M497.364,119.776c-0.043-1.425-0.376-2.759-0.93-3.925c2.973-0.808,7.106,0.34,9.192,4.848
		c-3.309,2.762-6.846,4.612-11.54,3.027c-4.563-1.519-6.104-5.496-7.351-10.372C491.977,111.349,495.581,114.967,497.364,119.776"/>
	<path d="M506.488,119.97c-1.663-4.214-6.082-6.575-10.516-4.956c-1.917-3.066-5.551-4.582-9.495-2.73
		c-1.222-4.987-2.335-10.735-6.016-15.764c0.315-0.081,0.625-0.167,0.934-0.232c3.978,11.975,16.848,19.245,30.31,18.838
		C509.912,116.69,508.225,118.424,506.488,119.97"/>
	<path d="M441.048,84.079c-10.21,12.046-29.024,10.473-35.393-2.7c-4.979-10.288-3.139-30.344,10.964-36.592
		c14.021-6.23,26.273,6.313,26.181,19.412c4.644-10.59,11.8-17.098,18.873-20.153c-20.254-0.186-23.627-23.49-13.473-34.843
		c10.226-11.432,27.671-7.152,33.813-1.008c8.909,8.907,10.37,22.071,0.176,30.362c6.545-0.241,12.187,0.743,17.016,2.576
		c-0.237,1.734-0.092,4.302-0.018,5.221c-3.798-4.826-13.691-10.593-20.896-5.474c-11.241,7.994-7.152,32.611,5.017,44.492
		c-23.831-4.29-35.473,13.358-26.323,25.728C448.25,103.777,443.187,93.666,441.048,84.079"/>
	<path fill="#FFFFFF" d="M419.723,127.074c1.216-0.848,2.738-1.688,4.523-2.497c-8.674-4.089-15.363,5.786-6.239,13.741
		c7.761,6.77,17.512,2.95,16.903-3.259c-2.333,0.809-4.794,1.684-6.036,2.052C421.812,139.213,416.101,129.65,419.723,127.074"/>
	<path fill="#FFFFFF" d="M436.679,135.501c0.228,7.337-10.788,12.092-20.06,3.653c-3.993-3.624-5.249-7.628-4.651-10.855
		c-14.319,4.667-22.389,25.746-9.984,34.751c-1.274-2.441-1.731-5.161-1.157-7.646c0.963,8.032,6.517,12.046,10.876,13.126
		c-1.478-3.336-1.776-7.193-1.961-10.146c2.326,7.152,3.166,13.923,11.336,15.32c8.983,1.546,15.493-9.843,14.173-15.36
		c-1.239,3.147-2.899,6.242-5.537,6.916c3.064-3.807,3.994-9.575,7.619-12.448c-0.438,1-0.889,2.314-1.389,3.712
		c0.405,0.848,0.657,1.82,0.741,2.864c4.335-2.154,7.026-4.601,7.547-10.481C444.644,144.334,441.214,139.608,436.679,135.501"/>
	<path d="M477.549,127.954c-24.89-2.731-43.478,6.063-49.04,7.664c-5.583,1.62-9.733-6.076-7.711-7.522
		c7.618-5.456,28.066-9.64,41.924-11.047c6.434,3.622,12.525,5.773,20.893,5.939c2.008,3.335,5.382,6.18,10.836,7.163
		c7.002,1.264,11.535-2.941,16.485-8.023c4.117,9.439,4.967,21.608,2.953,31.59c-13.447,12.013-39.213,10.443-47.333-3.52
		c0.42-0.332,0.838-0.665,1.242-1.012C473.922,144.048,479.028,136.611,477.549,127.954"/>
	<path fill="#FFFFFF" d="M422.836,224.136c-5.742-0.895-10.53,0.434-13.029,3.397c2.656-1.315,6.958-2.247,10.47-2.164
		c-3.238,1.719-6.126,3.965-8.12,6.575c6.409-4.634,14.42-8.88,22.85-8.389c11.065,0.66,15.594,9.257,13.471,14.718
		c-6.131,15.687-40.794,19.68-49.7,0.913c-8.347-17.604,7.655-43.079,15.419-44.112c2.423-0.321,5.224,0.499,6.798,2.055
		c-3.126,1.407-5.9,4.991-6.19,11.324c-0.558,12.078,9.701,15.508,14.583,11.987c0.355,0.241,1.068,0.965,1.298,1.498
		C428.097,222.284,425.413,223.041,422.836,224.136"/>
	<path fill="#FFFFFF" d="M416.156,208.837c0.547-11.633,11.043-13.817,13.701-5.977c-1.21-0.08-2.929-0.212-3.676-0.17
		c-5.804,0.321-5.63,10.726-0.518,12.799c1.371,0.55,2.864,0.917,4.416,1.112C427.546,223.336,415.622,220.445,416.156,208.837"/>
	<path d="M426.407,214.099c-4.446-1.698-3.86-10.116-0.126-10.116c3.095,0,12.531,1.728,19.321-2.237
		c1.804,3.291,3.809,6.435,5.608,9.633C445,214.755,432.177,216.307,426.407,214.099"/>
	<path fill="#FFFFFF" d="M458.22,220.966c1.593-2.45,4.344-5.127,7.52-7.636c0.808,1.002,1.641,2.064,2.48,3.168
		C463.956,218.924,459.963,220.809,458.22,220.966"/>
	<path d="M478.159,205.584c6.708,8.495,19.553,28.824,21.134,32.717c1.518,3.751-3.209,13.579-6.757,15.354
		c-3.886-9.469-17.489-31.834-25.657-41.214C470.615,209.627,474.771,207.121,478.159,205.584"/>
	<path fill="#FFFFFF" d="M502.861,237.512c-1.095,6.939-0.751,14.156,1.166,20.54c-2.141-18.862,4.008-38.762,15.792-45.976
		c14.347-8.794,30.034,4.401,24.433,26.564c-4.717,18.613-20.714,35.408-38.836,38.919c-10.925,2.12-17.868-5.732-14.529-14.108
		c2.82-0.447,5.638-2.804,6.104-5.837c-2.632,3.696-7.001,5.271-8.948,3.882c-1.954-1.413-1.534-6.336,1.419-11.235
		c1.04,1.987,1.947,3.839,2.703,5.496c6.136-3.009,9.903-13.578,8.479-17.841c-0.041-0.133-0.359-0.692-0.427-0.857
		C500.903,237.003,502.309,236.994,502.861,237.512"/>
	<path fill="#FFFFFF" d="M481.606,207.177c-0.624-0.821-1.219-1.583-1.787-2.296c1.463-0.548,2.7-0.869,3.61-0.88
		C483.618,204.536,483.132,205.613,481.606,207.177"/>
	<path fill="#FFFFFF" d="M482.744,200.216c-0.866-1.245-1.9-2.781-3.104-4.448c3.548-1.214,7.541-3.875,9.053-6.266
		c-1.917,1.463-6.2,3.654-10.046,4.87c-2.849-3.904-6.427-8.335-10.51-11.677c4.369,5.011,11.3,15.888,14.15,19.813
		c-6.757,0.809-20.852,10.196-25.324,17.135c-0.592-1.625-1.829-4.511-3.884-8.282c-6.307-11.666-12.498-20.992-9.955-34.743
		c2.632-14.358,12.97-18.434,22.457-25.667c6.498,13.114,32.295,17.965,47.892,4.61c-0.292,1.198-0.618,2.361-0.995,3.471
		C503.984,183.929,492.495,188.192,482.744,200.216"/>
	<path d="M515.688,131.82c-0.819-4.027-2.004-7.26-3.806-10.664c0.557-0.586,1.136-1.175,1.732-1.778
		c4.188,1.092,9.133,1.747,14.367,2.327c-2.691,2.981-4.385,6.616-5.102,10.831C520.543,132.197,517.684,131.974,515.688,131.82"/>
	<path fill="#FFFFFF" d="M527.678,154.795c-2.105-1.842-4.609-3.316-5.258-5.12c-0.932-2.622,0.561-4.381,2.598-5.224
		c2.004,1.997,4.146,2.997,6.467,3.056c0.819,2.845,3.469,5.121,6.373,6.171c0.211,2.691-1.6,6.375-4.545,6.171
		C531.502,159.732,530.646,157.39,527.678,154.795"/>
	<path fill="#FFFFFF" d="M563.51,153.093c-2.354,0.527-3.233,0.054-4.936-0.332c1.307-0.857,2.359-1.944,2.947-3.52
		c-3.713,3.601-6.558,3.601-7.803,5.701c1.193-0.422,2.357-0.849,3.408-1.361c0.971,0.173,1.851,0.485,2.754,0.735
		c-1.711,2.273-4.682,3.795-7.355,3.884c-2.985,0.086-6.324-2.043-7.165-5.391c-0.837-3.348,1.305-8.822,5.759-13.385
		c-5.545,2.604-8.055,9.198-7.326,13.261c-4.936,0.586-9.871-2.132-10.688-6.162c-0.865-4.205,0.561-10.277,6.924-17.463
		c-6.652,4.337-9.621,11.811-8.822,17.165c-4.023-0.735-6.246-4.06-6.78-7.319c-1.127-7.02,3.556-17.012,8.431-18.946
		c12.072-4.835,24.209,13.123,29.896,18.078c-0.546-1.011-1.404-2.375-2.486-3.905c5.824,5.159,10.854,6.295,11.167,10.278
		C571.799,149.13,566.236,152.475,563.51,153.093"/>
	<path d="M533.723,87.639c-3.817,0.6-7.035-1.261-6.313-5.332c0.645-3.711,3.16-9.855,5.967-12.717
		c4.227-4.284,12.785,0.027,10.673,9.006C542.953,83.339,538.486,86.884,533.723,87.639"/>
	<path d="M410.108,137.859c-2.592,2.32-7.149,7.334-8.54,9.846C400.827,144.452,406.772,138.51,410.108,137.859"/>
	<path d="M412.534,140.371c-3.249,2.035-7.899,9.006-6.596,11.7C407.881,148.998,408.72,146.118,412.534,140.371"/>
	<path d="M416.62,143.051c-2.146,2.7-4.369,7.996-3.624,10.881C414.015,152.154,415.975,146.215,416.62,143.051"/>
	<path d="M474.104,185.972c-5.865-1.852,2.011-21.726,8.648-19.683C489.132,168.271,481.153,188.192,474.104,185.972"/>
	<path fill="#FFFFFF" d="M474.505,185.201c-4.026-1.228,3.2-19.208,7.964-17.974C487.003,168.421,479.048,186.549,474.505,185.201"
		/>
	<path d="M492.109,184.574c-3.498-2.239,5.842-20.375,10.27-18.285c1.669,0.792,2.374,5.632-1.133,11.176
		C498.333,182.088,494.59,186.167,492.109,184.574"/>
	<path fill="#FFFFFF" d="M492.733,183.822c-2.013-1.339,6.72-17.86,9.146-16.644c1.195,0.607,0.777,5.304-1.814,9.549
		C497.435,181.029,493.932,184.621,492.733,183.822"/>
	<path d="M509.499,87.232c3.812-1.225,3.784-8.821,1.588-16.724c-2.04-7.334-6.481-14.545-11.122-12.979
		c-4.644,1.593-3.242,10.522-0.777,17.625C501.748,82.489,506.35,88.253,509.499,87.232"/>
	<path d="M507.07,80.731c-1.449-3.586-3.596-6.091-4.779-5.601c-0.512,0.204-0.76,0.954-0.75,2.046
		c1.934,4.603,4.631,8.648,6.773,9.175C508.375,84.956,507.95,82.903,507.07,80.731"/>
	<path fill="#FFFFFF" d="M509.875,71.06c-2.055-7.633-6.104-13.804-9.527-12.588c-3.499,1.222-2.033,9.852,0.336,16.495
		c0.043,0.136,0.094,0.27,0.141,0.392c0.215-0.622,0.554-1.076,1.029-1.267c1.703-0.697,4.461,2.109,6.148,6.254
		c0.895,2.212,1.307,4.36,1.247,5.989C511.939,85.436,512.096,79.333,509.875,71.06"/>
	<path d="M573.095,137.041c-0.37-4.024-2.359-7.036-8.606-9.869c-4.742-2.162-9.835-3.572-15.035-4.566
		c-5.15-3.919-11.189-6.334-17.17-4.014c-0.962,0.379-1.875,0.937-2.728,1.625c-5.418-0.451-10.556-0.892-15.106-1.682
		c1.588-1.58,3.275-3.123,5.147-4.545c0.343-0.098,0.702-0.188,1.052-0.295c15.847-4.699,21.605-15.996,20.584-27.564
		c2.242-1.802,3.859-4.228,4.58-6.983c2.787-10.491-7.787-15.882-13.184-11.053c-1.796,1.63-3.351,4.256-4.529,7.042
		c-1.319-0.012-2.611,0.176-3.863,0.527c-0.765-27.212-22.412-39.752-39.076-38.218c9.763-9.186,6.14-23.286-2.034-30.718
		c-8.177-7.431-25.698-10.285-36.197,1.422c-12.305,13.74-5.008,35.599,11.117,36.545c-6.221,3.435-11.795,8.538-14.486,15.5
		c-1.287-12.905-14.592-22.482-27.685-16.994c-14.586,6.135-18.107,25.454-11.981,38.92c6.516,14.313,27.073,15.638,36.783,4.087
		c2.012,11.8,9.195,22.689,19.856,29.511c-10.417,1-24.985,4.147-34.408,8.023c-6.468-3.678-12.035-1.354-13.753,3.101
		c-18.015,4.139-26.342,31.115-8.979,38.358c2.091,2.605,5.276,4.594,9.226,5.055c1.627,2.595,4.203,4.65,8.366,5.304
		c9.019,1.419,15.353-7.485,15.738-14.537c5.573-2.203,8.891-5.55,9.375-12.027c0.445-5.862-3.996-10.994-8.707-14.771
		c8.957-2.947,22.478-6.51,39.141-4.946c0.545,7.425-3.317,12.815-10.028,18.413c-10.26,8.55-22.152,11.601-25.605,28.051
		c-0.577,2.691-0.798,5.193-0.777,7.556c-12.493,3.981-28.41,2.046-43.441-3.596c-38.973-14.621-80.474-46.958-113.432-23.038
		c36.269-22.145,74.691,10.896,112.567,25.114c22.683,8.516,36.404,8.094,44.575,5.444c0.665,4.902,2.411,9.175,4.524,13.203
		c-3.934,2.512-9.344,2.694-13.432,2.512c-1.357-4.961-5.468-7.072-9.039-6.307c-1.764-2.472-5.468-3.348-8.797-2.929
		c-8.701,1.083-25.576,27.59-16.813,46.233c9.399,19.951,46.535,16.794,53.048-1.097c2.429-6.699-2.406-16.397-14.962-17.113
		c-0.625-0.039-1.708-0.129-2.369-0.098c-0.414-0.691-1.157-1.713-2.102-2.312c0.536-0.718,0.972-1.58,1.284-2.582
		c7.529,0.434,16.246-1.719,20.245-3.936c2.424,4.577,3.684,8.308,3.905,9.011c0.67,2.153,6.859,0.015,13.569-3.682
		c6.816,9.221,14.098,20.998,19.065,30.311c-3.345,5.256-5.208,11.484-1.302,14.245c0.627,0.448,1.349,0.698,2.123,0.782
		c-3.003,8.269,2.418,17.899,16.361,15.94c16.309-2.311,35.412-18.811,40.586-40.135c6.129-25.256-13.289-37.333-27.4-28.787
		c-8.213,4.979-13.61,14.618-15.684,25.105c-0.711-0.506-2.439-0.444-3.675,0.003c-2.824-5.523-10.45-18.452-16.794-26.95
		c2.826-3.027,2.793-4.928,2.064-5.706c-0.23-0.265-0.515-0.607-0.821-1.019c10.557-13.574,21.725-17.215,30.363-42.16
		c2.541-7.343,3.135-17.387,1.676-26.175c2.14,0.124,4.849,0.376,6.65,0.595c-0.166,1.598-0.253,3.388,0.072,5.246
		c0.214,1.201,0.883,2.971,1.309,3.625c-2.635,1.204-4.659,3.99-3.445,7.31c1.021,2.78,4.201,3.786,6.334,6.006
		c2.806,2.939,4.24,4.838,6.484,5.011c3.514,0.249,6.311-3.438,5.75-7.51c1.275,0.107,3.55,0.215,4.912-0.056
		c1.277,3.601,5.149,5.822,8.398,5.715c3.492-0.121,6.921-1.925,8.497-4.984c0.853,0.136,1.784,0.161,2.887-0.104
		c5.315-1.204,8.286-5.49,8.808-8.603C575.078,143.845,575.515,139.959,573.095,137.041"/>
	<path fill="#FFFFFF" d="M523.141,76.032c-0.485,0.194-0.992,0.404-1.471,0.66c-0.189-2.512-0.609-5.724-1.293-8.269
		c-2.326-8.499-7.012-14.232-9.693-12.854c-2.215,1.11-0.311,7.321,2.657,16.893c1.227,3.938,2.14,7.116,3.022,9.289
		c-0.793,1.401-1.311,2.968-1.474,4.646c3.122-6.84,9.007-9.301,12.701-9.97c-0.819,2.182-1.39,4.363-1.651,6.162
		c-0.645,4.461,3.472,7.252,8.182,6.599c2.055-0.286,3.92-0.987,5.553-1.958c0.877,8.745-4.486,20.133-19.674,24.522
		c-17.133,4.956-32.652-2.95-37.472-15.704c2.805-0.536,5.708-0.678,8.338-0.36c-7.307-2.67-17.4,0.493-19.564,5.825
		c1.843-2.046,4.716-3.619,7.958-4.635c7.113,7.952,3.777,24.58,14.203,28.033c9.304,3.083,14.038-4.894,19.877-9.873
		c1.351-0.1,2.696-0.276,4.032-0.538c-8.037,6.421-13.445,15.734-22.832,13.973c-9.834-1.852-11.191-10.063-13.732-13.037
		c0.333,1.514,1.275,3.894,2.123,6.013c-9.207-0.589-15.252-3.28-20.614-6.528c-14.985-11.729-5.082-34.094,23.411-28.215
		c-13.682-12.818-16.95-37.095-6.789-44.797c7.202-5.461,18.422,2.552,21.187,6.961c0-1.75-0.132-5.15,0.116-7.306
		C516.441,48.294,523.017,64.806,523.141,76.032"/>
	<path fill="#FFFFFF" d="M559.479,132.283c4.697-0.725,17.269,5.32,13.191,11.512C571.914,139.337,567.584,138.095,559.479,132.283"
		/>
	<path d="M563.748,128.75c4.583,2.221,6.276,3.811,7.301,6.286c-3.436-2.722-9.151-4.969-12.846-3.703
		c-0.991-1.099-3.902-4.517-5.909-6.357C556.422,125.896,560.307,127.083,563.748,128.75"/>
	<path d="M517.138,80.573c-0.708-2.153-1.489-5.177-2.501-8.543c-0.027-0.103-0.049-0.188-0.072-0.285
		c0.913-0.071,2.232,2.308,2.977,5.447c0.193,0.851,0.32,1.654,0.404,2.394C517.65,79.907,517.375,80.24,517.138,80.573"/>
	<path fill="#FFFFFF" d="M518.717,78.787c-0.082-0.583-0.182-1.177-0.328-1.793c-0.875-3.746-2.709-6.527-4.102-6.189
		c-0.01,0-0.01,0.003-0.016,0.009c-2.305-7.501-4.607-13.513-2.971-14.515c1.477-0.901,5.768,4.063,7.859,12.632
		c0.822,3.355,1.273,6.153,1.449,8.388C519.932,77.75,519.301,78.243,518.717,78.787"/>
	<path fill="#EA1D2D" d="M497.361,119.776c-0.032-1.431-0.376-2.771-0.93-3.928c2.973-0.811,7.109,0.33,9.192,4.851
		c-3.294,2.762-6.837,4.612-11.531,3.039c-4.563-1.537-6.109-5.508-7.354-10.384C491.979,111.334,495.592,114.959,497.361,119.776"
		/>
	<path d="M506.488,119.964c-1.669-4.214-6.072-6.575-10.525-4.961c-1.902-3.062-5.542-4.57-9.492-2.73
		c-1.202-4.975-2.323-10.723-6.007-15.75c0.306-0.084,0.616-0.161,0.931-0.241c3.978,11.975,16.858,19.238,30.31,18.844
		C509.912,116.681,508.225,118.416,506.488,119.964"/>
	<path d="M441.051,84.079c-10.198,12.046-29.024,10.476-35.393-2.7c-4.977-10.297-3.132-30.344,10.955-36.592
		c14.036-6.215,26.288,6.319,26.205,19.412c4.634-10.59,11.794-17.085,18.838-20.159c-20.234-0.182-23.602-23.475-13.459-34.831
		C458.42-2.214,475.869,2.059,482.004,8.2c8.921,8.914,10.376,22.071,0.182,30.372c6.551-0.25,12.19,0.735,17.014,2.561
		c-0.222,1.737-0.089,4.29-0.009,5.239c-3.811-4.829-13.697-10.598-20.89-5.486c-11.25,7.982-7.165,32.603,5.008,44.498
		c-23.817-4.311-35.47,13.34-26.326,25.709C448.253,103.784,443.187,93.66,441.051,84.079"/>
	<path fill="#FFFFFF" d="M419.729,127.074c1.204-0.854,2.744-1.688,4.514-2.506c-8.666-4.086-15.363,5.795-6.233,13.744
		c7.761,6.767,17.506,2.94,16.909-3.25c-2.329,0.795-4.797,1.669-6.045,2.049C421.816,139.21,416.11,129.635,419.729,127.074"/>
	<path fill="#FFFFFF" d="M436.679,135.489c0.222,7.34-10.782,12.102-20.063,3.675c-3.987-3.628-5.24-7.628-4.648-10.874
		c-14.316,4.667-22.386,25.746-9.981,34.752c-1.263-2.433-1.725-5.156-1.16-7.633c0.969,8.029,6.524,12.043,10.876,13.111
		c-1.472-3.336-1.767-7.193-1.953-10.143c2.323,7.152,3.157,13.921,11.327,15.329c8.986,1.537,15.484-9.849,14.186-15.369
		c-1.248,3.141-2.895,6.239-5.546,6.916c3.065-3.812,4.003-9.569,7.619-12.451c-0.444,1.003-0.88,2.32-1.383,3.709
		c0.405,0.854,0.648,1.829,0.744,2.856c4.332-2.12,7.014-4.594,7.541-10.459C444.652,144.332,441.211,139.602,436.679,135.489"/>
	<path d="M477.542,127.943c-24.88-2.721-43.461,6.08-49.036,7.681c-5.567,1.617-9.721-6.083-7.711-7.529
		c7.618-5.458,28.066-9.652,41.927-11.056c6.431,3.625,12.522,5.786,20.902,5.949c2,3.33,5.359,6.162,10.83,7.153
		c7.003,1.261,11.526-2.938,16.47-8.02c4.129,9.442,4.979,21.605,2.957,31.593c-13.438,12.006-39.202,10.437-47.325-3.53
		c0.423-0.327,0.827-0.657,1.245-0.999C473.925,144.048,479.036,136.608,477.542,127.943"/>
	<path fill="#FFFFFF" d="M422.847,224.127c-5.747-0.901-10.541,0.434-13.04,3.381c2.656-1.295,6.963-2.23,10.47-2.147
		c-3.238,1.725-6.12,3.958-8.12,6.581c6.413-4.646,14.433-8.892,22.853-8.399c11.071,0.664,15.603,9.251,13.468,14.707
		c-6.131,15.704-40.789,19.687-49.691,0.936c-8.353-17.61,7.652-43.087,15.419-44.118c2.408-0.328,5.22,0.49,6.798,2.055
		c-3.135,1.4-5.909,4.992-6.206,11.333c-0.551,12.058,9.702,15.493,14.583,11.969c0.362,0.241,1.086,0.972,1.31,1.502
		C428.097,222.269,425.413,223.035,422.847,224.127"/>
	<path fill="#FFFFFF" d="M416.16,208.822c0.545-11.637,11.051-13.825,13.7-5.984c-1.219-0.074-2.932-0.204-3.679-0.154
		c-5.8,0.318-5.627,10.729-0.518,12.799c1.38,0.547,2.858,0.913,4.419,1.11C427.546,223.321,415.616,220.43,416.16,208.822"/>
	<path d="M426.413,214.082c-4.452-1.696-3.86-10.096-0.135-10.096c3.104,0,12.54,1.716,19.338-2.261
		c1.808,3.289,3.801,6.433,5.594,9.643C445.006,214.737,432.187,216.295,426.413,214.082"/>
	<path fill="#EA1D2D" d="M458.22,220.951c1.599-2.443,4.357-5.134,7.52-7.64c0.813,1.013,1.638,2.072,2.477,3.173
		C463.968,218.902,459.966,220.791,458.22,220.951"/>
	<path d="M478.168,205.572c6.709,8.492,19.544,28.829,21.116,32.708c1.527,3.764-3.2,13.591-6.748,15.354
		c-3.895-9.467-17.492-31.818-25.67-41.193C470.618,209.618,474.776,207.109,478.168,205.572"/>
	<path fill="#FFFFFF" d="M502.867,237.497c-1.094,6.939-0.76,14.153,1.154,20.546c-2.137-18.859,4.021-38.768,15.798-45.982
		c14.337-8.788,30.028,4.406,24.427,26.561c-4.717,18.61-20.715,35.401-38.821,38.912c-10.928,2.127-17.864-5.724-14.538-14.106
		c2.82-0.438,5.644-2.795,6.109-5.83c-2.638,3.686-7.001,5.265-8.942,3.877c-1.96-1.407-1.549-6.342,1.407-11.235
		c1.042,1.994,1.947,3.846,2.709,5.509c6.134-3.018,9.906-13.584,8.479-17.839c-0.05-0.135-0.367-0.694-0.436-0.863
		C500.916,236.994,502.314,236.971,502.867,237.497"/>
	<path fill="#EA1D2D" d="M481.6,207.162c-0.618-0.821-1.216-1.581-1.781-2.29c1.466-0.559,2.709-0.87,3.604-0.87
		C483.621,204.53,483.135,205.607,481.6,207.162"/>
	<path fill="#EA1D2D" d="M482.75,200.208c-0.866-1.254-1.909-2.785-3.094-4.46c3.542-1.204,7.529-3.869,9.044-6.248
		c-1.919,1.454-6.209,3.647-10.046,4.863c-2.843-3.9-6.421-8.341-10.52-11.676c4.384,5.017,11.318,15.896,14.153,19.815
		c-6.739,0.806-20.849,10.195-25.321,17.132c-0.58-1.63-1.832-4.519-3.866-8.282c-6.325-11.671-12.496-20.989-9.981-34.745
		c2.644-14.351,12.979-18.426,22.466-25.663c6.506,13.114,32.295,17.962,47.886,4.614c-0.287,1.191-0.617,2.364-1.004,3.471
		C503.984,183.929,492.498,188.178,482.75,200.208"/>
	<path d="M515.688,131.807c-0.819-4.032-2.017-7.256-3.81-10.663c0.566-0.588,1.14-1.18,1.727-1.775
		c4.201,1.083,9.137,1.752,14.377,2.332c-2.699,2.979-4.387,6.616-5.102,10.823C520.543,132.183,517.674,131.971,515.688,131.807"/>
	<path fill="#FFFFFF" d="M527.676,154.792c-2.109-1.842-4.617-3.307-5.265-5.128c-0.929-2.606,0.566-4.375,2.604-5.221
		c1.997,2.002,4.146,3.003,6.47,3.059c0.813,2.845,3.471,5.118,6.376,6.18c0.198,2.685-1.603,6.369-4.541,6.166
		C531.506,159.729,530.646,157.387,527.676,154.792"/>
	<path fill="#FFFFFF" d="M563.494,153.082c-2.35,0.538-3.218,0.056-4.926-0.324c1.305-0.849,2.344-1.941,2.943-3.511
		c-3.713,3.586-6.557,3.586-7.801,5.695c1.201-0.431,2.347-0.857,3.401-1.37c0.982,0.176,1.851,0.494,2.761,0.725
		c-1.719,2.281-4.686,3.812-7.355,3.895c-2.978,0.099-6.332-2.043-7.172-5.391c-0.826-3.342,1.308-8.815,5.768-13.376
		c-5.545,2.597-8.066,9.195-7.332,13.247c-4.936,0.598-9.85-2.117-10.688-6.153c-0.869-4.202,0.557-10.278,6.934-17.458
		c-6.643,4.334-9.619,11.801-8.836,17.165c-4.016-0.741-6.237-4.057-6.768-7.319c-1.124-7.028,3.559-17.005,8.42-18.952
		c12.074-4.829,24.215,13.129,29.91,18.082c-0.559-1.017-1.417-2.366-2.486-3.902c5.813,5.15,10.836,6.295,11.158,10.285
		C571.79,149.124,566.225,152.457,563.494,153.082"/>
	<path d="M533.723,87.642c-3.817,0.593-7.042-1.267-6.328-5.328c0.66-3.715,3.162-9.866,5.982-12.731
		c4.212-4.28,12.785,0.045,10.682,9.016C542.953,83.342,538.469,86.881,533.723,87.642"/>
	<path d="M410.122,137.859c-2.605,2.317-7.154,7.325-8.551,9.834C400.827,144.443,406.769,138.503,410.122,137.859"/>
	<path d="M412.537,140.354c-3.254,2.046-7.899,9.017-6.607,11.708C407.89,149,408.726,146.121,412.537,140.354"/>
	<path d="M416.614,143.051c-2.127,2.7-4.363,7.993-3.621,10.872C414.021,152.154,415.969,146.208,416.614,143.051"/>
	<path d="M474.111,185.963c-5.866-1.858,2.014-21.717,8.649-19.677C489.144,168.254,481.153,188.178,474.111,185.963"/>
	<path fill="#FFFFFF" d="M474.505,185.189c-4.033-1.213,3.2-19.206,7.964-17.958C487.003,168.412,479.048,186.543,474.505,185.189"
		/>
	<path d="M492.109,184.571c-3.498-2.244,5.838-20.381,10.27-18.297c1.669,0.792,2.383,5.65-1.125,11.182
		C498.333,182.079,494.59,186.158,492.109,184.571"/>
	<path fill="#FFFFFF" d="M492.739,183.806c-2.013-1.329,6.714-17.852,9.133-16.643c1.206,0.613,0.78,5.313-1.802,9.552
		C497.444,181.017,493.935,184.615,492.739,183.806"/>
	<path d="M509.499,87.229c3.817-1.231,3.788-8.81,1.588-16.724c-2.04-7.329-6.481-14.542-11.116-12.963
		c-4.646,1.586-3.257,10.513-0.78,17.616C501.742,82.506,506.35,88.256,509.499,87.229"/>
	<path d="M507.07,80.737c-1.446-3.586-3.589-6.091-4.773-5.609c-0.523,0.207-0.766,0.969-0.766,2.04
		c1.95,4.606,4.65,8.654,6.774,9.182C508.381,84.953,507.953,82.9,507.07,80.737"/>
	<path fill="#FFFFFF" d="M509.875,71.07c-2.055-7.652-6.11-13.803-9.537-12.605c-3.489,1.234-2.014,9.855,0.34,16.51
		c0.047,0.126,0.096,0.253,0.154,0.39c0.213-0.633,0.546-1.086,1.021-1.281c1.709-0.691,4.451,2.115,6.148,6.26
		c0.895,2.212,1.307,4.36,1.247,5.989h0.009C511.931,85.439,512.096,79.342,509.875,71.07"/>
</g>
</svg>
